<mxfile host="app.diagrams.net" agent="Mozilla/5.0 (Windows NT 10.0; Win64; x64) AppleWebKit/537.36 (KHTML, like Gecko) Chrome/132.0.0.0 Safari/537.36 Edg/132.0.0.0" version="26.0.11">
  <diagram id="C5RBs43oDa-KdzZeNtuy" name="Page-1">
    <mxGraphModel dx="786" dy="455" grid="1" gridSize="10" guides="1" tooltips="1" connect="1" arrows="1" fold="1" page="1" pageScale="1" pageWidth="827" pageHeight="1169" math="0" shadow="0">
      <root>
        <mxCell id="WIyWlLk6GJQsqaUBKTNV-0" />
        <mxCell id="WIyWlLk6GJQsqaUBKTNV-1" parent="WIyWlLk6GJQsqaUBKTNV-0" />
        <mxCell id="WIyWlLk6GJQsqaUBKTNV-3" value="Increase Light Intensity of LED" style="rounded=1;whiteSpace=wrap;html=1;fontSize=12;glass=0;strokeWidth=1;shadow=0;" parent="WIyWlLk6GJQsqaUBKTNV-1" vertex="1">
          <mxGeometry x="580" y="180" width="120" height="40" as="geometry" />
        </mxCell>
        <mxCell id="N5Ace7HfvKLjDq9x6au6-1" value="&lt;b&gt;Start&lt;/b&gt;" style="strokeWidth=1;html=1;shape=mxgraph.flowchart.terminator;whiteSpace=wrap;" vertex="1" parent="WIyWlLk6GJQsqaUBKTNV-1">
          <mxGeometry x="220" y="10" width="90" height="40" as="geometry" />
        </mxCell>
        <mxCell id="N5Ace7HfvKLjDq9x6au6-16" style="edgeStyle=orthogonalEdgeStyle;rounded=0;orthogonalLoop=1;jettySize=auto;html=1;exitX=0.5;exitY=1;exitDx=0;exitDy=0;" edge="1" parent="WIyWlLk6GJQsqaUBKTNV-1" source="N5Ace7HfvKLjDq9x6au6-2" target="N5Ace7HfvKLjDq9x6au6-14">
          <mxGeometry relative="1" as="geometry" />
        </mxCell>
        <mxCell id="N5Ace7HfvKLjDq9x6au6-2" value="&lt;b&gt;Receive Data&amp;nbsp;&lt;/b&gt;&lt;div&gt;via EspNow&lt;div&gt;(From Main M5 Fire)&lt;/div&gt;&lt;/div&gt;" style="shape=parallelogram;html=1;strokeWidth=1;perimeter=parallelogramPerimeter;whiteSpace=wrap;rounded=1;arcSize=12;size=0.23;" vertex="1" parent="WIyWlLk6GJQsqaUBKTNV-1">
          <mxGeometry x="40" y="100" width="210" height="60" as="geometry" />
        </mxCell>
        <mxCell id="N5Ace7HfvKLjDq9x6au6-15" style="edgeStyle=orthogonalEdgeStyle;rounded=0;orthogonalLoop=1;jettySize=auto;html=1;exitX=0.5;exitY=1;exitDx=0;exitDy=0;" edge="1" parent="WIyWlLk6GJQsqaUBKTNV-1" source="N5Ace7HfvKLjDq9x6au6-3" target="N5Ace7HfvKLjDq9x6au6-14">
          <mxGeometry relative="1" as="geometry" />
        </mxCell>
        <mxCell id="N5Ace7HfvKLjDq9x6au6-3" value="&lt;b&gt;Receive Data&lt;/b&gt;&lt;div&gt;via EspNow&lt;b&gt;&lt;br&gt;&lt;/b&gt;&lt;div&gt;(From MQTT Dashboard)&lt;/div&gt;&lt;/div&gt;" style="shape=parallelogram;html=1;strokeWidth=1;perimeter=parallelogramPerimeter;whiteSpace=wrap;rounded=1;arcSize=12;size=0.23;" vertex="1" parent="WIyWlLk6GJQsqaUBKTNV-1">
          <mxGeometry x="260" y="100" width="220" height="60" as="geometry" />
        </mxCell>
        <mxCell id="N5Ace7HfvKLjDq9x6au6-8" value="" style="strokeWidth=1;html=1;shape=mxgraph.flowchart.annotation_2;align=left;labelPosition=right;pointerEvents=1;rotation=90;" vertex="1" parent="WIyWlLk6GJQsqaUBKTNV-1">
          <mxGeometry x="242.5" y="-40" width="45" height="225" as="geometry" />
        </mxCell>
        <mxCell id="N5Ace7HfvKLjDq9x6au6-11" style="edgeStyle=orthogonalEdgeStyle;rounded=0;orthogonalLoop=1;jettySize=auto;html=1;exitX=0.5;exitY=1;exitDx=0;exitDy=0;exitPerimeter=0;entryX=0.538;entryY=0;entryDx=0;entryDy=0;entryPerimeter=0;" edge="1" parent="WIyWlLk6GJQsqaUBKTNV-1" source="N5Ace7HfvKLjDq9x6au6-8" target="N5Ace7HfvKLjDq9x6au6-2">
          <mxGeometry relative="1" as="geometry" />
        </mxCell>
        <mxCell id="N5Ace7HfvKLjDq9x6au6-12" style="edgeStyle=orthogonalEdgeStyle;rounded=0;orthogonalLoop=1;jettySize=auto;html=1;exitX=0.5;exitY=0;exitDx=0;exitDy=0;exitPerimeter=0;entryX=0.539;entryY=-0.044;entryDx=0;entryDy=0;entryPerimeter=0;" edge="1" parent="WIyWlLk6GJQsqaUBKTNV-1" source="N5Ace7HfvKLjDq9x6au6-8" target="N5Ace7HfvKLjDq9x6au6-3">
          <mxGeometry relative="1" as="geometry">
            <Array as="points">
              <mxPoint x="379" y="73" />
            </Array>
          </mxGeometry>
        </mxCell>
        <mxCell id="N5Ace7HfvKLjDq9x6au6-14" value="Check the&amp;nbsp;&lt;div&gt;Light Intensity value&amp;nbsp;&lt;div&gt;from&amp;nbsp;&lt;/div&gt;&lt;/div&gt;&lt;div&gt;&lt;b&gt;Light Sensor&lt;/b&gt;&lt;/div&gt;" style="strokeWidth=1;html=1;shape=mxgraph.flowchart.decision;whiteSpace=wrap;" vertex="1" parent="WIyWlLk6GJQsqaUBKTNV-1">
          <mxGeometry x="170" y="210" width="190" height="100" as="geometry" />
        </mxCell>
        <mxCell id="N5Ace7HfvKLjDq9x6au6-31" value="&lt;b&gt;Yes&lt;/b&gt;" style="edgeStyle=orthogonalEdgeStyle;rounded=0;orthogonalLoop=1;jettySize=auto;html=1;exitX=0.5;exitY=0;exitDx=0;exitDy=0;exitPerimeter=0;entryX=0;entryY=0.5;entryDx=0;entryDy=0;" edge="1" parent="WIyWlLk6GJQsqaUBKTNV-1" source="N5Ace7HfvKLjDq9x6au6-17" target="WIyWlLk6GJQsqaUBKTNV-3">
          <mxGeometry relative="1" as="geometry" />
        </mxCell>
        <mxCell id="N5Ace7HfvKLjDq9x6au6-32" value="&lt;b&gt;No&lt;/b&gt;" style="edgeStyle=orthogonalEdgeStyle;rounded=0;orthogonalLoop=1;jettySize=auto;html=1;exitX=0.5;exitY=1;exitDx=0;exitDy=0;exitPerimeter=0;entryX=0;entryY=0.5;entryDx=0;entryDy=0;" edge="1" parent="WIyWlLk6GJQsqaUBKTNV-1" source="N5Ace7HfvKLjDq9x6au6-17" target="N5Ace7HfvKLjDq9x6au6-22">
          <mxGeometry relative="1" as="geometry">
            <Array as="points">
              <mxPoint x="500" y="320" />
              <mxPoint x="560" y="320" />
              <mxPoint x="560" y="300" />
            </Array>
          </mxGeometry>
        </mxCell>
        <mxCell id="N5Ace7HfvKLjDq9x6au6-17" value="&lt;div&gt;&lt;span style=&quot;background-color: transparent; color: light-dark(rgb(0, 0, 0), rgb(255, 255, 255));&quot;&gt;light sensor&amp;nbsp;&lt;/span&gt;&lt;/div&gt;&lt;div&gt;value &amp;lt;&amp;nbsp;&lt;span style=&quot;background-color: transparent; color: light-dark(rgb(0, 0, 0), rgb(255, 255, 255));&quot;&gt;received&amp;nbsp;&lt;/span&gt;&lt;/div&gt;&lt;div&gt;&lt;span style=&quot;background-color: transparent; color: light-dark(rgb(0, 0, 0), rgb(255, 255, 255));&quot;&gt;threshold&amp;nbsp;&lt;/span&gt;&lt;/div&gt;" style="strokeWidth=1;html=1;shape=mxgraph.flowchart.decision;whiteSpace=wrap;" vertex="1" parent="WIyWlLk6GJQsqaUBKTNV-1">
          <mxGeometry x="410" y="220" width="180" height="80" as="geometry" />
        </mxCell>
        <mxCell id="N5Ace7HfvKLjDq9x6au6-22" value="Decrease Light Intensity of LED" style="rounded=1;whiteSpace=wrap;html=1;fontSize=12;glass=0;strokeWidth=1;shadow=0;" vertex="1" parent="WIyWlLk6GJQsqaUBKTNV-1">
          <mxGeometry x="580" y="280" width="120" height="40" as="geometry" />
        </mxCell>
        <mxCell id="N5Ace7HfvKLjDq9x6au6-36" value="&lt;b&gt;Yes&lt;/b&gt;" style="edgeStyle=orthogonalEdgeStyle;rounded=0;orthogonalLoop=1;jettySize=auto;html=1;exitX=0.5;exitY=0;exitDx=0;exitDy=0;exitPerimeter=0;entryX=0;entryY=0.5;entryDx=0;entryDy=0;" edge="1" parent="WIyWlLk6GJQsqaUBKTNV-1" source="N5Ace7HfvKLjDq9x6au6-24" target="N5Ace7HfvKLjDq9x6au6-26">
          <mxGeometry relative="1" as="geometry">
            <Array as="points">
              <mxPoint x="490" y="385" />
            </Array>
          </mxGeometry>
        </mxCell>
        <mxCell id="N5Ace7HfvKLjDq9x6au6-37" value="&lt;b&gt;No&lt;/b&gt;" style="edgeStyle=orthogonalEdgeStyle;rounded=0;orthogonalLoop=1;jettySize=auto;html=1;exitX=0.5;exitY=1;exitDx=0;exitDy=0;exitPerimeter=0;entryX=0;entryY=0.5;entryDx=0;entryDy=0;" edge="1" parent="WIyWlLk6GJQsqaUBKTNV-1" source="N5Ace7HfvKLjDq9x6au6-24" target="N5Ace7HfvKLjDq9x6au6-27">
          <mxGeometry relative="1" as="geometry">
            <Array as="points">
              <mxPoint x="490" y="490" />
              <mxPoint x="560" y="490" />
              <mxPoint x="560" y="475" />
            </Array>
          </mxGeometry>
        </mxCell>
        <mxCell id="N5Ace7HfvKLjDq9x6au6-24" value="&lt;div&gt;&lt;span style=&quot;background-color: transparent; color: light-dark(rgb(0, 0, 0), rgb(255, 255, 255));&quot;&gt;ENV III&amp;nbsp;&lt;/span&gt;&lt;/div&gt;&lt;div&gt;value &amp;lt;&amp;nbsp;&lt;span style=&quot;background-color: transparent; color: light-dark(rgb(0, 0, 0), rgb(255, 255, 255));&quot;&gt;received&amp;nbsp;&lt;/span&gt;&lt;/div&gt;&lt;div&gt;&lt;span style=&quot;background-color: transparent; color: light-dark(rgb(0, 0, 0), rgb(255, 255, 255));&quot;&gt;threshold&amp;nbsp;&lt;/span&gt;&lt;/div&gt;" style="strokeWidth=1;html=1;shape=mxgraph.flowchart.decision;whiteSpace=wrap;" vertex="1" parent="WIyWlLk6GJQsqaUBKTNV-1">
          <mxGeometry x="410" y="390" width="160" height="80" as="geometry" />
        </mxCell>
        <mxCell id="N5Ace7HfvKLjDq9x6au6-26" value="Increase Air Temperature by using fans&amp;nbsp;" style="rounded=1;whiteSpace=wrap;html=1;fontSize=12;glass=0;strokeWidth=1;shadow=0;" vertex="1" parent="WIyWlLk6GJQsqaUBKTNV-1">
          <mxGeometry x="580" y="360" width="140" height="50" as="geometry" />
        </mxCell>
        <mxCell id="N5Ace7HfvKLjDq9x6au6-27" value="Decrease Air Temperature by adjusting fans" style="rounded=1;whiteSpace=wrap;html=1;fontSize=12;glass=0;strokeWidth=1;shadow=0;" vertex="1" parent="WIyWlLk6GJQsqaUBKTNV-1">
          <mxGeometry x="580" y="450" width="140" height="50" as="geometry" />
        </mxCell>
        <mxCell id="N5Ace7HfvKLjDq9x6au6-35" value="" style="edgeStyle=orthogonalEdgeStyle;rounded=0;orthogonalLoop=1;jettySize=auto;html=1;" edge="1" parent="WIyWlLk6GJQsqaUBKTNV-1" source="N5Ace7HfvKLjDq9x6au6-28" target="N5Ace7HfvKLjDq9x6au6-24">
          <mxGeometry relative="1" as="geometry" />
        </mxCell>
        <mxCell id="N5Ace7HfvKLjDq9x6au6-38" value="" style="edgeStyle=orthogonalEdgeStyle;rounded=0;orthogonalLoop=1;jettySize=auto;html=1;" edge="1" parent="WIyWlLk6GJQsqaUBKTNV-1" source="N5Ace7HfvKLjDq9x6au6-28" target="N5Ace7HfvKLjDq9x6au6-29">
          <mxGeometry relative="1" as="geometry" />
        </mxCell>
        <mxCell id="N5Ace7HfvKLjDq9x6au6-28" value="Check the&amp;nbsp;&lt;div&gt;Air Temperature value&amp;nbsp;&lt;div&gt;from&amp;nbsp;&lt;/div&gt;&lt;/div&gt;&lt;div&gt;&lt;b&gt;ENV III Sensor&lt;/b&gt;&lt;/div&gt;" style="strokeWidth=1;html=1;shape=mxgraph.flowchart.decision;whiteSpace=wrap;" vertex="1" parent="WIyWlLk6GJQsqaUBKTNV-1">
          <mxGeometry x="170" y="380" width="190" height="100" as="geometry" />
        </mxCell>
        <mxCell id="N5Ace7HfvKLjDq9x6au6-40" value="" style="edgeStyle=orthogonalEdgeStyle;rounded=0;orthogonalLoop=1;jettySize=auto;html=1;" edge="1" parent="WIyWlLk6GJQsqaUBKTNV-1" source="N5Ace7HfvKLjDq9x6au6-29" target="N5Ace7HfvKLjDq9x6au6-39">
          <mxGeometry relative="1" as="geometry" />
        </mxCell>
        <mxCell id="N5Ace7HfvKLjDq9x6au6-29" value="Check the&amp;nbsp;&lt;div&gt;Humidity value&amp;nbsp;&lt;div&gt;from&amp;nbsp;&lt;/div&gt;&lt;/div&gt;&lt;div&gt;&lt;b&gt;ENV III Sensor&lt;/b&gt;&lt;/div&gt;" style="strokeWidth=1;html=1;shape=mxgraph.flowchart.decision;whiteSpace=wrap;" vertex="1" parent="WIyWlLk6GJQsqaUBKTNV-1">
          <mxGeometry x="170" y="550" width="190" height="100" as="geometry" />
        </mxCell>
        <mxCell id="N5Ace7HfvKLjDq9x6au6-30" style="edgeStyle=orthogonalEdgeStyle;rounded=0;orthogonalLoop=1;jettySize=auto;html=1;exitX=1;exitY=0.5;exitDx=0;exitDy=0;exitPerimeter=0;entryX=0;entryY=0.5;entryDx=0;entryDy=0;entryPerimeter=0;" edge="1" parent="WIyWlLk6GJQsqaUBKTNV-1" source="N5Ace7HfvKLjDq9x6au6-14" target="N5Ace7HfvKLjDq9x6au6-17">
          <mxGeometry relative="1" as="geometry" />
        </mxCell>
        <mxCell id="N5Ace7HfvKLjDq9x6au6-34" style="edgeStyle=orthogonalEdgeStyle;rounded=0;orthogonalLoop=1;jettySize=auto;html=1;exitX=0.5;exitY=1;exitDx=0;exitDy=0;exitPerimeter=0;entryX=0.5;entryY=0;entryDx=0;entryDy=0;entryPerimeter=0;" edge="1" parent="WIyWlLk6GJQsqaUBKTNV-1" source="N5Ace7HfvKLjDq9x6au6-14" target="N5Ace7HfvKLjDq9x6au6-28">
          <mxGeometry relative="1" as="geometry" />
        </mxCell>
        <mxCell id="N5Ace7HfvKLjDq9x6au6-43" value="&lt;b&gt;Yes&lt;/b&gt;" style="edgeStyle=orthogonalEdgeStyle;rounded=0;orthogonalLoop=1;jettySize=auto;html=1;exitX=0.5;exitY=0;exitDx=0;exitDy=0;exitPerimeter=0;entryX=0;entryY=0.5;entryDx=0;entryDy=0;" edge="1" parent="WIyWlLk6GJQsqaUBKTNV-1" source="N5Ace7HfvKLjDq9x6au6-39" target="N5Ace7HfvKLjDq9x6au6-41">
          <mxGeometry relative="1" as="geometry">
            <Array as="points">
              <mxPoint x="490" y="545" />
            </Array>
          </mxGeometry>
        </mxCell>
        <mxCell id="N5Ace7HfvKLjDq9x6au6-45" value="&lt;b&gt;No&lt;/b&gt;" style="edgeStyle=orthogonalEdgeStyle;rounded=0;orthogonalLoop=1;jettySize=auto;html=1;exitX=0.5;exitY=1;exitDx=0;exitDy=0;exitPerimeter=0;entryX=0;entryY=0.5;entryDx=0;entryDy=0;" edge="1" parent="WIyWlLk6GJQsqaUBKTNV-1" source="N5Ace7HfvKLjDq9x6au6-39" target="N5Ace7HfvKLjDq9x6au6-42">
          <mxGeometry relative="1" as="geometry">
            <Array as="points">
              <mxPoint x="490" y="660" />
              <mxPoint x="560" y="660" />
              <mxPoint x="560" y="645" />
            </Array>
          </mxGeometry>
        </mxCell>
        <mxCell id="N5Ace7HfvKLjDq9x6au6-39" value="&lt;div&gt;&lt;span style=&quot;background-color: transparent; color: light-dark(rgb(0, 0, 0), rgb(255, 255, 255));&quot;&gt;ENV III&amp;nbsp;&lt;/span&gt;&lt;/div&gt;&lt;div&gt;value &amp;lt;&amp;nbsp;&lt;span style=&quot;background-color: transparent; color: light-dark(rgb(0, 0, 0), rgb(255, 255, 255));&quot;&gt;received&amp;nbsp;&lt;/span&gt;&lt;/div&gt;&lt;div&gt;&lt;span style=&quot;background-color: transparent; color: light-dark(rgb(0, 0, 0), rgb(255, 255, 255));&quot;&gt;threshold&amp;nbsp;&lt;/span&gt;&lt;/div&gt;" style="strokeWidth=1;html=1;shape=mxgraph.flowchart.decision;whiteSpace=wrap;" vertex="1" parent="WIyWlLk6GJQsqaUBKTNV-1">
          <mxGeometry x="410" y="560" width="160" height="80" as="geometry" />
        </mxCell>
        <mxCell id="N5Ace7HfvKLjDq9x6au6-41" value="Increase Humidity by using humidifier&amp;nbsp;" style="rounded=1;whiteSpace=wrap;html=1;fontSize=12;glass=0;strokeWidth=1;shadow=0;" vertex="1" parent="WIyWlLk6GJQsqaUBKTNV-1">
          <mxGeometry x="580" y="520" width="140" height="50" as="geometry" />
        </mxCell>
        <mxCell id="N5Ace7HfvKLjDq9x6au6-42" value="Decrease Humidity by adjusting humidifier or temperature" style="rounded=1;whiteSpace=wrap;html=1;fontSize=12;glass=0;strokeWidth=1;shadow=0;" vertex="1" parent="WIyWlLk6GJQsqaUBKTNV-1">
          <mxGeometry x="580" y="620" width="140" height="50" as="geometry" />
        </mxCell>
        <mxCell id="N5Ace7HfvKLjDq9x6au6-49" style="edgeStyle=orthogonalEdgeStyle;rounded=0;orthogonalLoop=1;jettySize=auto;html=1;exitX=0.5;exitY=1;exitDx=0;exitDy=0;exitPerimeter=0;entryX=0.5;entryY=0;entryDx=0;entryDy=0;" edge="1" parent="WIyWlLk6GJQsqaUBKTNV-1" source="N5Ace7HfvKLjDq9x6au6-46" target="N5Ace7HfvKLjDq9x6au6-48">
          <mxGeometry relative="1" as="geometry" />
        </mxCell>
        <mxCell id="N5Ace7HfvKLjDq9x6au6-46" value="&lt;b&gt;Servo Motor&lt;/b&gt;" style="strokeWidth=1;html=1;shape=mxgraph.flowchart.decision;whiteSpace=wrap;" vertex="1" parent="WIyWlLk6GJQsqaUBKTNV-1">
          <mxGeometry x="170" y="720" width="190" height="100" as="geometry" />
        </mxCell>
        <mxCell id="N5Ace7HfvKLjDq9x6au6-47" style="edgeStyle=orthogonalEdgeStyle;rounded=0;orthogonalLoop=1;jettySize=auto;html=1;exitX=0.5;exitY=1;exitDx=0;exitDy=0;exitPerimeter=0;entryX=0.5;entryY=0;entryDx=0;entryDy=0;entryPerimeter=0;" edge="1" parent="WIyWlLk6GJQsqaUBKTNV-1" source="N5Ace7HfvKLjDq9x6au6-29" target="N5Ace7HfvKLjDq9x6au6-46">
          <mxGeometry relative="1" as="geometry" />
        </mxCell>
        <mxCell id="N5Ace7HfvKLjDq9x6au6-48" value="&lt;b&gt;Send Data&lt;/b&gt;&lt;div&gt;via EspNow&lt;b&gt;&lt;br&gt;&lt;/b&gt;&lt;div&gt;(To MQTT Dashboard)&lt;/div&gt;&lt;/div&gt;" style="shape=parallelogram;html=1;strokeWidth=1;perimeter=parallelogramPerimeter;whiteSpace=wrap;rounded=1;arcSize=12;size=0.23;" vertex="1" parent="WIyWlLk6GJQsqaUBKTNV-1">
          <mxGeometry x="160" y="890" width="210" height="60" as="geometry" />
        </mxCell>
        <mxCell id="N5Ace7HfvKLjDq9x6au6-50" style="edgeStyle=orthogonalEdgeStyle;rounded=0;orthogonalLoop=1;jettySize=auto;html=1;exitX=0.5;exitY=1;exitDx=0;exitDy=0;entryX=0;entryY=0.5;entryDx=0;entryDy=0;entryPerimeter=0;" edge="1" parent="WIyWlLk6GJQsqaUBKTNV-1" source="N5Ace7HfvKLjDq9x6au6-48" target="N5Ace7HfvKLjDq9x6au6-1">
          <mxGeometry relative="1" as="geometry">
            <Array as="points">
              <mxPoint x="265" y="970" />
              <mxPoint x="30" y="970" />
              <mxPoint x="30" y="30" />
            </Array>
          </mxGeometry>
        </mxCell>
      </root>
    </mxGraphModel>
  </diagram>
</mxfile>
